<svg width="100" height="100" viewBox="0 0 100 100" fill="none" xmlns="http://www.w3.org/2000/svg">
<path d="M74.4536 0H25.5464C11.4597 0 0 11.461 0 25.5478V74.4522C0 88.5389 11.4604 100 25.5464 100H74.4536C88.5403 100 100 88.5385 100 74.4522V25.5478C100 11.4611 88.5396 0 74.4536 0ZM31.2601 77.0511C31.2601 79.0261 31.0866 80.5458 30.7391 81.6083C30.2724 82.9979 29.4263 84.1119 28.2003 84.9531C26.9737 85.7943 25.3572 86.2149 23.3505 86.2149C20.9956 86.2149 19.1842 85.556 17.9148 84.2372C16.6454 82.9195 16.0046 80.9851 15.9942 78.4354L20.535 77.9143C20.5888 79.2815 20.7897 80.2479 21.1373 80.8117C21.6583 81.6682 22.4495 82.0965 23.5136 82.0965C24.5875 82.0965 25.3469 81.7906 25.7921 81.1773C26.2369 80.564 26.4598 79.2919 26.4598 77.3615V61.9479H31.2607L31.2601 77.0511ZM53.8675 72.9821C53.3354 73.9808 52.6606 74.7649 51.8415 75.3347C51.0217 75.9036 50.1893 76.2813 49.3428 76.4652C48.1925 76.6931 46.5272 76.8079 44.3463 76.8079H41.2051V85.8074H36.3878V61.9476H44.1185C47.0483 61.9476 48.9573 62.0673 49.8474 62.3056C51.2145 62.6636 52.3587 63.4422 53.2812 64.6413C54.2031 65.8404 54.6648 67.3899 54.6648 69.288C54.6648 70.7529 54.3985 71.985 53.8676 72.982L53.8675 72.9821ZM80.1026 82.5192C79.0934 83.496 77.6313 84.3563 75.7162 85.0997C73.8017 85.842 71.8613 86.2143 69.8978 86.2143C67.4023 86.2143 65.2271 85.6911 63.3717 84.644C61.5159 83.5959 60.1213 82.0986 59.189 80.1516C58.2556 78.2036 57.7894 76.0853 57.7894 73.7952C57.7894 71.3112 58.31 69.1029 59.3515 67.1719C60.393 65.241 61.9172 63.7596 63.9251 62.7279C65.4553 61.9362 67.3589 61.5403 69.6375 61.5403C72.5996 61.5403 74.9133 62.1613 76.5792 63.4033C78.2446 64.6452 79.3152 66.3627 79.7934 68.554L75.0084 69.4495C74.6718 68.2778 74.0409 67.3521 73.112 66.6752C72.1852 65.9971 71.0261 65.6572 69.6375 65.6572C67.5324 65.6572 65.8589 66.3249 64.6163 67.6596C63.3744 68.9944 62.7534 70.9743 62.7534 73.5993C62.7534 76.4313 63.3821 78.5562 64.6411 79.9717C65.8995 81.3882 67.5484 82.0954 69.5886 82.0954C70.5978 82.0954 71.6091 81.8971 72.6238 81.5018C73.639 81.106 74.5092 80.6255 75.2368 80.0622L75.2362 77.0353H69.7188V73.0146H80.1025L80.1026 82.5192ZM92.7012 44.4224C89.2307 45.9086 85.4126 46.7344 81.4045 46.7344C65.5383 46.7344 52.6308 33.8261 52.6308 17.9608C52.6308 14.1959 53.3589 10.5985 54.6793 7.29974H74.453C84.5144 7.29974 92.7003 15.4861 92.7003 25.5484L92.7012 44.4224Z" fill="black"/>
<path d="M47.0078 66.8226C46.4571 66.7187 45.3511 66.6665 43.6902 66.6665H41.4634V73.1706H43.9865C45.803 73.1706 47.0183 73.0514 47.631 72.8114C48.2431 72.5714 48.7233 72.1959 49.0712 71.6859C49.4195 71.1759 49.5935 70.5815 49.5935 69.9038C49.5935 69.0694 49.3491 68.3818 48.8615 67.8401C48.3724 67.2979 47.7549 66.9592 47.0078 66.8226Z" fill="black"/>
</svg>
