<svg width="100" height="100" viewBox="0 0 100 100" fill="none" xmlns="http://www.w3.org/2000/svg">
<path d="M27.2743 65.8858C26.6938 65.7723 25.5273 65.7144 23.7763 65.7144H21.4287V72.8572H24.0887C26.0041 72.8572 27.2848 72.7269 27.9313 72.4633C28.5755 72.1998 29.0829 71.7879 29.4495 71.2272C29.8162 70.6671 30.0001 70.0142 30.0001 69.2693C30.0001 68.3535 29.7426 67.5976 29.2274 67.0033C28.7128 66.4078 28.0624 66.0358 27.2743 65.8858Z" fill="black"/>
<path d="M74.455 0H25.5478C11.4597 0 0 11.4604 0 25.5464V74.4522C0 88.5389 11.4604 100 25.5478 100H74.455C88.5403 100 100 88.5385 100 74.4522V25.5464C100 11.4597 88.5396 0 74.455 0ZM33.7901 72.9805C33.2576 73.9793 32.5828 74.7634 31.763 75.3332C30.9444 75.9026 30.1126 76.2798 29.2659 76.4637C28.115 76.691 26.4498 76.8058 24.2689 76.8058H21.1277V85.8053H16.3104L16.3109 61.9455H24.041C26.9703 61.9455 28.8804 62.0652 29.7699 62.3035C31.137 62.6615 32.2812 63.4401 33.2049 64.6392C34.1267 65.8389 34.5879 67.3878 34.5879 69.2863C34.5874 70.7512 34.3222 71.9828 33.7901 72.9798L33.7901 72.9805ZM57.5191 85.8059H52.6847L43.0668 70.2461V85.8059H38.5903V61.9462H43.2777L53.0432 77.8798V61.9462H57.5191V85.8059ZM84.0959 82.5181C83.0867 83.4949 81.6246 84.3552 79.7089 85.0986C77.7955 85.8404 75.8556 86.2132 73.8916 86.2132C71.3956 86.2132 69.2198 85.6899 67.3644 84.6429C65.5086 83.5947 64.114 82.0975 63.1822 80.1505C62.2488 78.2031 61.7827 76.0847 61.7827 73.7935C61.7827 71.3095 62.3037 69.1012 63.3453 67.1702C64.3863 65.2393 65.9093 63.7579 67.9172 62.7268C69.4475 61.935 71.3522 61.5392 73.6312 61.5392C76.5927 61.5392 78.907 62.1602 80.5724 63.4021C82.2377 64.6441 83.3089 66.3616 83.7871 68.5533L79.002 69.4488C78.6649 68.2771 78.033 67.3514 77.1051 66.6745C76.1783 65.9964 75.0192 65.6565 73.6317 65.6565C71.5262 65.6565 69.8531 66.3247 68.6096 67.6589C67.3676 68.9937 66.7466 70.9741 66.7466 73.5986C66.7466 76.4306 67.3759 78.5555 68.6343 79.9704C69.8933 81.387 71.5422 82.0941 73.5824 82.0941C74.5916 82.0941 75.6035 81.8964 76.6176 81.5006C77.6334 81.1047 78.5031 80.6243 79.2306 80.0604V77.0329H73.7126V73.0123H84.0963L84.0959 82.5181ZM92.7007 44.4227C89.2306 45.9084 85.412 46.7336 81.4045 46.7336C65.5369 46.7336 52.6294 33.8253 52.6294 17.9599C52.6294 14.1945 53.3586 10.5971 54.679 7.2989H74.4541C84.5144 7.2989 92.7 15.4847 92.7 25.5461L92.7007 44.4227Z" fill="black"/>
</svg>
