<svg width="358" height="330" viewBox="0 0 358 330" fill="none" xmlns="http://www.w3.org/2000/svg">
<rect width="358" height="330"/>
<g id="spinner-full">
<path id="spinner-side--c" d="M158.431 325.501C158.431 327.535 156.756 329.208 154.603 328.97C120.155 326.22 93.1223 297.034 93.4812 262.107L93.8398 210.674C93.8398 204.574 92.285 198.594 89.2948 193.33C86.3045 188.067 81.999 183.642 76.7355 180.412L32.479 154.098C2.33673 136.156 -8.42837 97.9996 7.0019 67.1396C7.83943 65.3454 10.2317 64.6282 12.0259 65.704L110.108 123.955C140.848 142.137 159.747 175.628 159.388 211.511L158.431 325.501Z" fill="white"/>
<path id="spinner-side--b" d="M198.86 329.568C196.826 329.568 195.152 328.013 195.152 325.98L196.109 211.869C196.468 176.105 215.845 143.092 246.825 125.629L345.863 69.8898C347.658 68.9331 349.931 69.6503 350.767 71.4445C365.838 102.663 354.236 140.58 323.854 157.805L279.119 183.042C268.354 189.142 261.656 200.505 261.656 212.826L261.298 264.259C260.819 299.425 233.308 327.773 198.86 329.568L198.86 329.568Z" fill="white"/>
<path id="spinner-side--a" d="M328.878 32.6904C329.955 34.3654 329.357 36.7578 327.682 37.7144L228.643 93.4536C197.664 110.916 159.388 110.439 128.647 92.2575L30.5653 34.0064C28.7711 32.9294 28.2922 30.6575 29.4883 28.9824C48.7453 0.395658 87.3806 -8.45624 117.523 9.48708L161.779 35.8018C172.425 42.1409 185.702 42.2614 196.228 36.2807L241.082 11.0431C271.583 -6.18253 309.979 3.74498 328.878 32.6914L328.878 32.6904Z" fill="white"/>
</g>
</svg>
